<svg width="122" height="171" viewBox="0 0 122 171" fill="none" xmlns="http://www.w3.org/2000/svg">
<path d="M24.961 107.106C23.0605 122.579 25.7988 138.405 28.8514 152.596C29.5973 156.063 33.205 158.13 36.6445 157.265C52.1324 153.369 74.2618 149.781 85.261 130.865C93.1519 117.294 73.5533 102.592 59.1966 113.808C55.8071 72.5729 26.5557 94.1211 24.961 107.106Z" fill="#354BCF" stroke="black" stroke-width="2.5"/>
<path d="M31.3189 116.99C30.1474 126.529 31.6197 136.268 33.4571 145.161C34.1747 148.634 37.8054 150.737 41.2534 149.907C51.3902 147.467 64.6837 144.593 71.5229 132.831C76.784 123.783 63.7169 113.981 54.1449 121.459C51.885 93.966 32.3822 108.333 31.3189 116.99Z" fill="#6878DB" stroke="black" stroke-width="2.5"/>
<path d="M85.1531 64.337C84.2867 71.3919 85.2501 78.5856 86.5675 85.2401C87.2562 88.7191 90.9041 90.8582 94.3524 90.0291C102.16 88.1519 111.821 85.64 116.928 76.8566C121.086 69.7055 110.759 61.9586 103.193 67.8688C101.407 46.1402 85.9935 57.4949 85.1531 64.337Z" fill="#354BCF" stroke="black" stroke-width="2.5"/>
<path d="M88.5034 69.5455C88.0188 73.4918 88.3929 77.5031 89.0446 81.3127C89.6426 84.8085 93.3482 87.0418 96.7787 86.1421C101.509 84.9017 106.738 82.9667 109.689 77.8927C112.461 73.1249 105.575 67.9597 100.531 71.9003C99.3406 57.4131 89.0637 64.9837 88.5034 69.5455Z" fill="#6878DB" stroke="black" stroke-width="2.5"/>
<path d="M53.1531 15.337C52.2867 22.3919 53.2501 29.5856 54.5675 36.2401C55.2562 39.7191 58.9041 41.8582 62.3524 41.0291C70.1601 39.1519 79.8208 36.64 84.9279 27.8566C89.0859 20.7055 78.7585 12.9586 71.1934 18.8688C69.4073 -2.8598 53.9935 8.49492 53.1531 15.337Z" fill="#354BCF" stroke="black" stroke-width="2.5"/>
<path d="M56.5034 20.5455C56.0188 24.4918 56.3929 28.5031 57.0446 32.3127C57.6426 35.8085 61.3482 38.0418 64.7787 37.1421C69.509 35.9017 74.7384 33.9667 77.6887 28.8927C80.461 24.1249 73.5754 18.9597 68.5314 22.9003C67.3406 8.4131 57.0637 15.9837 56.5034 20.5455Z" fill="#6878DB" stroke="black" stroke-width="2.5"/>
</svg>
