<svg width="73" height="191" viewBox="0 0 73 191" fill="none" xmlns="http://www.w3.org/2000/svg">
<path fill-rule="evenodd" clip-rule="evenodd" d="M22.9027 1.18704C21.3809 1.93154 20.1127 4.29615 19.2762 7.96247C18.6055 10.8281 17.8739 16.4142 17.4715 21.6702C17.1886 25.4091 17.0228 33.9029 17.174 37.183C17.352 40.9921 17.352 41.2215 17.2032 41.2215C16.9057 41.2215 11.6233 32.1541 8.90895 26.9707C6.77502 22.9321 6.08729 21.8434 5.0435 20.9257C3.53633 19.5935 2.04379 19.837 1.34386 21.5414C1.12925 22.0963 1 23.4916 1 24.9502V25.0017C1 25.5636 1.01951 26.1348 1.06097 26.6686C1.37557 30.4216 2.13647 33.3574 3.92653 37.7683C4.64353 39.5452 5.1947 41.3924 6.6726 47.0066C7.68713 50.8743 8.9114 55.7721 9.40403 57.9072C9.89666 60.026 10.6429 63.1913 11.06 64.9262C12.2379 69.8099 12.2379 69.824 12.6427 74.3799C12.8378 76.7422 13.1646 80.2821 13.3743 82.258C13.9572 88.0314 14.2986 91.8687 15.0912 101.594C15.4936 106.635 15.9716 112.335 16.135 114.269C16.6423 120.242 17.1496 127.49 17.6276 135.181C18.925 156.38 19.9103 167.824 21.5223 180.228C21.9564 183.611 22.2661 185.854 22.9027 190H64.9398C64.0692 186.638 63.34 183.789 63.001 182.377C61.6133 176.648 60.911 173.354 60.0159 168.196C56.809 149.79 54.3921 127.947 53.124 105.89C53.0337 104.314 52.9142 96.6377 52.8557 88.8462L52.7362 74.6655L53.7361 73.6635C55.4969 71.9006 61.1817 65.8439 62.8522 63.9663C65.0447 61.4869 66.4324 59.6983 68.2688 57.0199C71.2221 52.6934 71.983 51.1623 71.9977 49.514C72.0123 48.5401 71.9684 48.3833 71.5806 47.8963C71.1465 47.3531 71.1319 47.3531 70.3125 47.4234C69.2223 47.524 68.1639 47.9103 66.447 48.8562C63.5522 50.4458 59.8233 53.1382 56.8846 55.7604C56.0334 56.5189 55.3189 57.1066 55.2872 57.0925C55.2579 57.0621 55.3311 56.6477 55.4506 56.1607C55.5701 55.6878 56.1383 53.0095 56.7187 50.2305C57.3016 47.4374 58.0625 44.0567 58.421 42.7246C59.5258 38.6556 63.4351 26.7108 65.5227 21.0966C67.8517 14.78 68.4468 11.8301 67.82 9.7371C67.2981 8.04675 66.03 7.51764 64.613 8.40496C64.2545 8.63439 63.2839 9.45147 62.4645 10.2381C59.7184 12.8158 57.9137 15.3232 53.7361 22.3281C49.856 28.8319 48.3805 31.7678 46.5734 36.4946L45.7223 38.7141L44.32 38.6556C43.5445 38.6275 42.9031 38.583 42.8713 38.569C42.7811 38.4964 43.1396 30.4473 43.3786 27.1814C44.0346 18.0437 43.6615 6.75675 42.6031 3.67573C41.8861 1.54056 40.1863 0.611107 38.4401 1.3837C36.3501 2.30145 34.0527 6.9698 33.1577 12.1556C32.3066 16.9972 31.7554 26.0927 31.8286 33.9849L31.8578 38.8546H29.4849L29.38 37.5646C29.0654 33.6407 28.7996 28.3684 28.663 23.7421C28.3192 12.097 28.1997 9.14711 28.0509 7.98588C27.6339 4.87677 26.573 2.25697 25.4243 1.48203C24.6635 0.981016 23.5879 0.85225 22.9027 1.18236V1.18704Z" fill="#4661CD" stroke="black" stroke-linecap="round" stroke-linejoin="round"/>
</svg>
