<svg width="103" height="190" viewBox="0 0 103 190" fill="none" xmlns="http://www.w3.org/2000/svg">
<path fill-rule="evenodd" clip-rule="evenodd" d="M81.3014 38.8039C77.326 39.1253 74.8673 39.5742 72.2679 40.4353C69.8783 41.2056 66.7567 42.6236 65.4498 43.5386C64.2646 44.3458 62.2924 46.301 62.2924 46.6788C62.2924 47.0909 63.0245 47.952 63.6708 48.293C64.472 48.7051 67.7869 49.5834 70.403 50.0691C75.1463 50.9474 81.4778 51.3252 92.0805 51.4135C96.893 51.4503 100.835 51.4135 100.835 51.3595C100.835 51.2884 100.592 50.4273 100.294 49.4583C99.2658 46.0851 97.6442 43.2344 95.6386 41.2768C93.2491 38.9438 93.4231 39.0174 89.5002 38.8015C85.6989 38.5856 83.9723 38.5856 81.3037 38.8015L81.3014 38.8039Z" fill="#4661CD"/>
<path fill-rule="evenodd" clip-rule="evenodd" d="M75.1105 54.6984C70.7678 54.9682 68.7098 55.3436 66.9141 56.1875C65.6072 56.7787 63.5658 58.1255 62.6406 58.9866C61.3671 60.169 61.6986 60.618 64.8393 61.8937C70.1406 64.028 80.7433 65.2668 96.9788 65.6078L101.932 65.7158L101.791 62.5217C101.722 60.7627 101.617 58.3954 101.548 57.2644L101.443 55.2013L97.8684 55.0761C95.8985 55.0222 91.9398 54.8799 89.0614 54.772C84.2823 54.5929 77.2544 54.5536 75.1105 54.6984Z" fill="#4661CD"/>
<path fill-rule="evenodd" clip-rule="evenodd" d="M75.3728 68.6744C70.9777 69.2484 69.1295 69.6606 66.48 70.6664C64.4935 71.4195 62.8528 72.3885 61.6318 73.4998C60.2367 74.7902 60.1675 74.7191 63.8639 75.7249C66.0269 76.3161 72.2178 77.3931 75.1987 77.6973C78.547 78.0383 85.1575 78.4333 90.8237 78.6124C93.8929 78.7007 97.5559 78.8454 98.951 78.8994L101.479 79.0245L101.584 78.4137C101.846 76.7626 102.089 72.0623 101.968 70.6639L101.846 69.1037L97.3819 69.0865C94.9065 69.0865 91.7323 69.0154 90.2848 68.9246C87.3205 68.7455 76.2981 68.5468 75.3752 68.6744H75.3728Z" fill="#4661CD"/>
<path fill-rule="evenodd" clip-rule="evenodd" d="M73.7154 81.8408C70.1049 82.1107 67.5937 82.6136 64.856 83.6341C63.2868 84.2253 61.0189 85.7144 60.9331 86.2174C60.7757 87.0613 62.4855 87.7776 66.5492 88.5847C67.806 88.8349 69.7758 89.2299 70.9276 89.463C75.5302 90.4148 81.9142 90.8981 88.5582 90.773L92.5694 90.719L94.1028 89.7328C96.0559 88.4596 97.9924 86.6295 98.9868 85.0864C99.7022 83.9727 100.487 82.3781 100.487 82.0174C100.487 81.9463 98.8986 81.8923 96.9645 81.8923C95.0114 81.9095 89.431 81.8752 84.5303 81.8016C79.6463 81.7476 74.7814 81.7476 73.7178 81.8384L73.7154 81.8408Z" fill="#4661CD"/>
<path fill-rule="evenodd" clip-rule="evenodd" d="M71.624 1.14942C69.1486 2.11844 66.3226 5.5088 62.9744 11.5732C62.0157 13.3493 61.2836 14.3723 59.8885 15.9693C57.6564 18.5158 47.576 30.9487 45.0123 34.3023C41.5759 38.7868 38.769 42.9499 32.2467 53.2657C31.7077 54.1268 30.5726 55.7238 29.7522 56.8179C25.5669 62.3254 23.299 66.4517 18.0168 78.237C13.1518 89.0729 11.5278 93.6285 9.19311 103.191C5.59926 117.974 2.72323 135.608 1.6954 149.206C0.929888 159.431 0.784417 175.397 1.31861 189H48.4369C47.6666 183.21 46.8319 176.371 46.0974 169.838C45.0863 160.869 44.9456 159.309 44.2301 150.104C43.3406 138.552 43.3573 131.59 44.2659 123.553C45.1196 115.999 46.7413 108.897 49.2191 101.935C50.4043 98.5816 51.4679 96.4105 52.4457 95.3703C53.2136 94.546 53.2136 94.5264 54.1365 94.6344C57.1532 94.9925 60.8854 95.1373 66.728 95.1373C73.3386 95.1201 75.9356 94.9582 80.1734 94.2934C81.132 94.1511 82.2481 93.9892 82.6678 93.918C83.0685 93.864 83.3833 93.7929 83.3475 93.7561C83.3117 93.7193 81.9691 93.6138 80.3308 93.5059C76.0239 93.2188 73.5485 92.8778 68.5762 91.8916C63.6398 90.8858 61.7057 90.3314 60.3464 89.4875C58.6031 88.4105 57.8519 86.5265 58.5674 84.9834C58.9322 84.1763 60.4322 82.9914 62.2995 82.0223C63.6064 81.3403 66.3441 80.337 67.4625 80.1211C67.794 80.0671 68.0897 79.9592 68.1422 79.888C68.178 79.8169 67.4983 79.6182 66.6422 79.4391C64.6366 79.0441 61.1835 78.0408 60.1389 77.5378C57.3487 76.1739 57.4871 73.4312 60.4871 71.1153C62.6501 69.43 65.1946 68.2622 68.8743 67.2417C70.2337 66.8639 70.3577 66.8099 69.8855 66.6848C65.457 65.6446 62.5785 64.5505 60.8877 63.2773C59.3186 62.112 58.8655 60.1739 59.7192 58.4346C60.2605 57.3773 60.871 56.7492 62.7359 55.3853C64.4792 54.112 65.3854 53.5551 66.5897 53.0522L67.5317 52.6573L65.6477 52.0636C62.1421 50.9523 61.1143 50.2875 60.313 48.6193C59.755 47.4883 59.7192 46.2323 60.1914 45.2829C60.6803 44.2967 62.7025 42.4298 64.3242 41.4608C65.8409 40.5285 69.8521 38.8604 71.8911 38.2691C74.9603 37.408 80.7338 36.6549 84.4826 36.6181C87.082 36.6009 86.8364 36.493 82.4437 35.7399C79.322 35.2026 72.8879 34.734 71.1422 34.9327C70.7416 34.9671 69.7996 35.0579 69.0675 35.0947L67.7249 35.2026L69.0317 33.2302C69.7305 32.1361 70.6367 30.593 71.0373 29.7859C71.996 27.8307 73.9849 21.57 74.9436 17.532C76.0429 12.9028 76.2862 10.8764 76.217 7.16227C76.1646 4.27482 76.1288 4.00497 75.7115 3.07275C75.101 1.72593 74.2472 1.08073 73.062 1.00959C72.5564 0.972788 71.9292 1.04638 71.6311 1.15433L71.624 1.14942Z" fill="#4661CD"/>
<path fill-rule="evenodd" clip-rule="evenodd" d="M81.3014 38.8039C77.326 39.1253 74.8673 39.5742 72.2679 40.4353C69.8783 41.2056 66.7567 42.6236 65.4498 43.5386C64.2646 44.3458 62.2924 46.301 62.2924 46.6788C62.2924 47.0909 63.0245 47.952 63.6708 48.293C64.472 48.7051 67.7869 49.5834 70.403 50.0691C75.1463 50.9474 81.4778 51.3252 92.0805 51.4135C96.893 51.4503 100.835 51.4135 100.835 51.3595C100.835 51.2884 100.592 50.4273 100.294 49.4583C99.2658 46.0851 97.6442 43.2344 95.6386 41.2768C93.2491 38.9438 93.4231 39.0174 89.5002 38.8015C85.6989 38.5856 83.9723 38.5856 81.3037 38.8015L81.3014 38.8039Z" stroke="black" stroke-linecap="round" stroke-linejoin="round"/>
<path fill-rule="evenodd" clip-rule="evenodd" d="M75.1105 54.6984C70.7678 54.9682 68.7098 55.3436 66.9141 56.1875C65.6072 56.7787 63.5658 58.1255 62.6406 58.9866C61.3671 60.169 61.6986 60.618 64.8393 61.8937C70.1406 64.028 80.7433 65.2668 96.9788 65.6078L101.932 65.7158L101.791 62.5217C101.722 60.7627 101.617 58.3954 101.548 57.2644L101.443 55.2013L97.8684 55.0761C95.8985 55.0222 91.9398 54.8799 89.0614 54.772C84.2823 54.5929 77.2544 54.5536 75.1105 54.6984Z" stroke="black" stroke-linecap="round" stroke-linejoin="round"/>
<path fill-rule="evenodd" clip-rule="evenodd" d="M75.3728 68.6744C70.9777 69.2484 69.1295 69.6606 66.48 70.6664C64.4935 71.4195 62.8528 72.3885 61.6318 73.4998C60.2367 74.7902 60.1675 74.7191 63.8639 75.7249C66.0269 76.3161 72.2178 77.3931 75.1987 77.6973C78.547 78.0383 85.1575 78.4333 90.8237 78.6124C93.8929 78.7007 97.5559 78.8454 98.951 78.8994L101.479 79.0245L101.584 78.4137C101.846 76.7626 102.089 72.0623 101.968 70.6639L101.846 69.1037L97.3819 69.0865C94.9065 69.0865 91.7323 69.0154 90.2848 68.9246C87.3205 68.7455 76.2981 68.5468 75.3752 68.6744H75.3728Z" stroke="black" stroke-linecap="round" stroke-linejoin="round"/>
<path fill-rule="evenodd" clip-rule="evenodd" d="M73.7154 81.8408C70.1049 82.1107 67.5937 82.6136 64.856 83.6341C63.2868 84.2253 61.0189 85.7144 60.9331 86.2174C60.7757 87.0613 62.4855 87.7776 66.5492 88.5847C67.806 88.8349 69.7758 89.2299 70.9276 89.463C75.5302 90.4148 81.9142 90.8981 88.5582 90.773L92.5694 90.719L94.1028 89.7328C96.0559 88.4596 97.9924 86.6295 98.9868 85.0864C99.7022 83.9727 100.487 82.3781 100.487 82.0174C100.487 81.9463 98.8986 81.8923 96.9645 81.8923C95.0114 81.9095 89.431 81.8752 84.5303 81.8016C79.6463 81.7476 74.7814 81.7476 73.7178 81.8384L73.7154 81.8408Z" stroke="black" stroke-linecap="round" stroke-linejoin="round"/>
<path fill-rule="evenodd" clip-rule="evenodd" d="M71.624 1.14942C69.1486 2.11844 66.3226 5.5088 62.9744 11.5732C62.0157 13.3493 61.2836 14.3723 59.8885 15.9693C57.6564 18.5158 47.576 30.9487 45.0123 34.3023C41.5759 38.7868 38.769 42.9499 32.2467 53.2657C31.7077 54.1268 30.5726 55.7238 29.7522 56.8179C25.5669 62.3254 23.299 66.4517 18.0168 78.237C13.1518 89.0729 11.5278 93.6285 9.19311 103.191C5.59926 117.974 2.72323 135.608 1.6954 149.206C0.929888 159.431 0.784417 175.397 1.31861 189H48.4369C47.6666 183.21 46.8319 176.371 46.0974 169.838C45.0863 160.869 44.9456 159.309 44.2301 150.104C43.3406 138.552 43.3573 131.59 44.2659 123.553C45.1196 115.999 46.7413 108.897 49.2191 101.935C50.4043 98.5816 51.4679 96.4105 52.4457 95.3703C53.2136 94.546 53.2136 94.5264 54.1365 94.6344C57.1532 94.9925 60.8854 95.1373 66.728 95.1373C73.3386 95.1201 75.9356 94.9582 80.1734 94.2934C81.132 94.1511 82.2481 93.9892 82.6678 93.918C83.0685 93.864 83.3833 93.7929 83.3475 93.7561C83.3117 93.7193 81.9691 93.6138 80.3308 93.5059C76.0239 93.2188 73.5485 92.8778 68.5762 91.8916C63.6398 90.8858 61.7057 90.3314 60.3464 89.4875C58.6031 88.4105 57.8519 86.5265 58.5674 84.9834C58.9322 84.1763 60.4322 82.9914 62.2995 82.0223C63.6064 81.3403 66.3441 80.337 67.4625 80.1211C67.794 80.0671 68.0897 79.9592 68.1422 79.888C68.178 79.8169 67.4983 79.6182 66.6422 79.4391C64.6366 79.0441 61.1835 78.0408 60.1389 77.5378C57.3487 76.1739 57.4871 73.4312 60.4871 71.1153C62.6501 69.43 65.1946 68.2622 68.8743 67.2417C70.2337 66.8639 70.3577 66.8099 69.8855 66.6848C65.457 65.6446 62.5785 64.5505 60.8877 63.2773C59.3186 62.112 58.8655 60.1739 59.7192 58.4346C60.2605 57.3773 60.871 56.7492 62.7359 55.3853C64.4792 54.112 65.3854 53.5551 66.5897 53.0522L67.5317 52.6573L65.6477 52.0636C62.1421 50.9523 61.1143 50.2875 60.313 48.6193C59.755 47.4883 59.7192 46.2323 60.1914 45.2829C60.6803 44.2967 62.7025 42.4298 64.3242 41.4608C65.8409 40.5285 69.8521 38.8604 71.8911 38.2691C74.9603 37.408 80.7338 36.6549 84.4826 36.6181C87.082 36.6009 86.8364 36.493 82.4437 35.7399C79.322 35.2026 72.8879 34.734 71.1422 34.9327C70.7416 34.9671 69.7996 35.0579 69.0675 35.0947L67.7249 35.2026L69.0317 33.2302C69.7305 32.1361 70.6367 30.593 71.0373 29.7859C71.996 27.8307 73.9849 21.57 74.9436 17.532C76.0429 12.9028 76.2862 10.8764 76.217 7.16227C76.1646 4.27482 76.1288 4.00497 75.7115 3.07275C75.101 1.72593 74.2472 1.08073 73.062 1.00959C72.5564 0.972788 71.9292 1.04638 71.6311 1.15433L71.624 1.14942Z" stroke="black" stroke-linecap="round" stroke-linejoin="round"/>
</svg>
